<?xml version="1.0" standalone="no"?><!-- Generator: Gravit.io --><svg xmlns="http://www.w3.org/2000/svg" xmlns:xlink="http://www.w3.org/1999/xlink" style="isolation:isolate" viewBox="0 0 1180 200" width="1180" height="200"><defs><clipPath id="_clipPath_XQ0R6qQdW2aw0Ar29LBDzNCXju79iO6f"><rect width="1180" height="200"/></clipPath></defs><g clip-path="url(#_clipPath_XQ0R6qQdW2aw0Ar29LBDzNCXju79iO6f)"><g id="Group"><path d=" M 150 183 C 96 134 92 129 34 183 L 34 17 L 150 17 L 150 183 Z " fill="rgb(53,219,235)"/></g><g id="Group"><path d=" M 274.9 183 C 220.9 134 216.9 129 158.9 183 L 158.9 17 L 274.9 17 L 274.9 183 Z " fill="rgb(21,255,179)"/></g><g id="Group"><path d=" M 399.7 183 C 345.7 134 341.7 129 283.7 183 L 283.7 17 L 399.7 17 L 399.7 183 Z " fill="rgb(237,227,161)"/></g><g id="Group"><path d=" M 524.6 183 C 470.6 134 466.6 129 408.6 183 L 408.6 17 L 524.6 17 L 524.6 183 Z " fill="rgb(255,198,190)"/></g><g id="Group"><path d=" M 649.4 183 C 595.4 134 591.4 129 533.4 183 L 533.4 17 L 649.4 17 L 649.4 183 Z " fill="rgb(255,159,178)"/></g><g id="Group"><path d=" M 774.3 183 C 720.3 134 716.3 129 658.3 183 L 658.3 17 L 774.3 17 L 774.3 183 Z " fill="rgb(194,195,255)"/></g><g id="Group"><path d=" M 899.1 183 C 845.1 134 841.1 129 783.1 183 L 783.1 17 L 899.1 17 L 899.1 183 Z " fill="rgb(58,201,220)"/></g><g id="Group"><path d=" M 1024 183 C 970 134 966 129 908 183 L 908 17 L 1024 17 L 1024 183 Z " fill="rgb(255,158,161)"/></g><g id="Group"><path d=" M 1149 183 C 1095 134 1091 129 1033 183 L 1033 17 L 1149 17 L 1149 183 Z " fill="rgb(255,191,237)"/></g><path d=" M 96.969 115.692 L 84.41 115.692 L 59.173 56.073 L 58.697 56.073 L 58.697 56.073 Q 59.709 69.354 59.709 80.975 L 59.709 80.975 L 59.709 115.692 L 46.792 115.692 L 46.792 44.305 L 66.851 44.305 L 91.017 101.092 L 91.374 101.092 L 116.254 44.305 L 136.372 44.305 L 136.372 115.692 L 122.682 115.692 L 122.682 80.389 L 122.682 80.389 Q 122.682 75.067 123.01 66.522 L 123.01 66.522 L 123.01 66.522 Q 123.337 57.977 123.575 56.17 L 123.575 56.17 L 123.099 56.17 L 96.969 115.692 Z " fill="rgb(255,255,255)"/><path d=" M 257.947 79.901 L 257.947 79.901 L 257.947 79.901 Q 257.947 97.333 247.322 107 L 247.322 107 L 247.322 107 Q 236.698 116.668 217.234 116.668 L 217.234 116.668 L 217.234 116.668 Q 197.533 116.668 186.968 107.074 L 186.968 107.074 L 186.968 107.074 Q 176.403 97.479 176.403 79.803 L 176.403 79.803 L 176.403 79.803 Q 176.403 62.127 187.027 52.655 L 187.027 52.655 L 187.027 52.655 Q 197.652 43.182 217.353 43.182 L 217.353 43.182 L 217.353 43.182 Q 236.757 43.182 247.352 52.801 L 247.352 52.801 L 247.352 52.801 Q 257.947 62.42 257.947 79.901 Z  M 191.521 79.901 L 191.521 79.901 L 191.521 79.901 Q 191.521 93.084 198.009 99.896 L 198.009 99.896 L 198.009 99.896 Q 204.497 106.708 217.234 106.708 L 217.234 106.708 L 217.234 106.708 Q 229.912 106.708 236.37 99.969 L 236.37 99.969 L 236.37 99.969 Q 242.829 93.231 242.829 79.901 L 242.829 79.901 L 242.829 79.901 Q 242.829 66.766 236.43 59.979 L 236.43 59.979 L 236.43 59.979 Q 230.031 53.192 217.353 53.192 L 217.353 53.192 L 217.353 53.192 Q 204.556 53.192 198.039 59.979 L 198.039 59.979 L 198.039 59.979 Q 191.521 66.766 191.521 79.901 Z " fill-rule="evenodd" fill="rgb(255,255,255)"/><path d=" M 377.596 44.305 L 377.596 115.692 L 360.156 115.692 L 317.36 58.807 L 316.884 58.807 L 317.181 61.981 L 317.181 61.981 Q 318.015 71.063 318.015 78.583 L 318.015 78.583 L 318.015 115.692 L 305.098 115.692 L 305.098 44.305 L 322.36 44.305 L 365.037 100.897 L 365.394 100.897 L 365.394 100.897 Q 365.275 99.774 364.918 92.718 L 364.918 92.718 L 364.918 92.718 Q 364.56 85.663 364.56 81.708 L 364.56 81.708 L 364.56 44.305 L 377.596 44.305 Z " fill="rgb(255,255,255)"/><path d=" M 469.728 75.604 L 503.298 115.692 L 486.811 115.692 L 459.491 83.368 L 451.098 88.983 L 451.098 115.692 L 436.872 115.692 L 436.872 44.305 L 451.098 44.305 L 451.098 78.387 L 451.098 78.387 Q 456.931 72.528 462.705 67.108 L 462.705 67.108 L 486.216 44.305 L 502.405 44.305 L 502.405 44.305 Q 479.609 66.278 469.728 75.604 L 469.728 75.604 Z " fill="rgb(255,255,255)"/><path d=" M 614.995 105.78 L 614.995 115.692 L 565.77 115.692 L 565.77 44.305 L 614.995 44.305 L 614.995 54.168 L 579.996 54.168 L 579.996 73.602 L 612.792 73.602 L 612.792 83.368 L 579.996 83.368 L 579.996 105.78 L 614.995 105.78 Z " fill="rgb(255,255,255)"/><path d=" M 692.561 44.305 L 713.156 76.874 L 733.75 44.305 L 749.226 44.305 L 720.239 88.006 L 720.239 115.692 L 705.953 115.692 L 705.953 88.397 L 677.086 44.305 L 692.561 44.305 Z " fill="rgb(255,255,255)"/><path d=" M 877.513 79.315 L 877.513 79.315 L 877.513 79.315 Q 877.513 96.991 865.549 106.341 L 865.549 106.341 L 865.549 106.341 Q 853.585 115.692 831.086 115.692 L 831.086 115.692 L 806.742 115.692 L 806.742 44.305 L 833.645 44.305 L 833.645 44.305 Q 854.418 44.305 865.966 53.485 L 865.966 53.485 L 865.966 53.485 Q 877.513 62.665 877.513 79.315 Z  M 862.513 79.706 L 862.513 79.706 L 862.513 79.706 Q 862.513 54.071 833.288 54.071 L 833.288 54.071 L 820.967 54.071 L 820.967 105.877 L 831.086 105.877 L 831.086 105.877 Q 862.513 105.877 862.513 79.706 Z " fill-rule="evenodd" fill="rgb(255,255,255)"/><path d=" M 989.106 105.78 L 989.106 115.692 L 939.881 115.692 L 939.881 44.305 L 989.106 44.305 L 989.106 54.168 L 954.107 54.168 L 954.107 73.602 L 986.903 73.602 L 986.903 83.368 L 954.107 83.368 L 954.107 105.78 L 989.106 105.78 Z " fill="rgb(255,255,255)"/><path d=" M 1096.746 88.495 L 1114.9 44.305 L 1129.661 44.305 L 1099.186 115.692 L 1084.187 115.692 L 1053.831 44.305 L 1068.473 44.305 L 1086.627 88.69 L 1086.627 88.69 Q 1088.056 91.864 1089.663 96.869 L 1089.663 96.869 L 1089.663 96.869 Q 1091.27 101.874 1091.746 104.315 L 1091.746 104.315 L 1091.746 104.315 Q 1092.52 100.604 1094.127 95.721 L 1094.127 95.721 L 1094.127 95.721 Q 1095.734 90.838 1096.746 88.495 L 1096.746 88.495 Z " fill="rgb(255,255,255)"/></g></svg>