<?xml version="1.0" encoding="utf-8"?>
<!-- Generator: Adobe Illustrator 22.0.1, SVG Export Plug-In . SVG Version: 6.00 Build 0)  -->
<svg version="1.1" id="Layer_1" xmlns="http://www.w3.org/2000/svg" xmlns:xlink="http://www.w3.org/1999/xlink" x="0px" y="0px"
	 viewBox="0 0 1180 200" style="enable-background:new 0 0 1180 200;" xml:space="preserve">
<style type="text/css">
	.st0{fill:#35DBEB;}
	.st1{fill:#15FFB3;}
	.st2{fill:#EDE3A1;}
	.st3{fill:#FFC6BE;}
	.st4{fill:#FF9FB2;}
	.st5{fill:#C2C3FF;}
	.st6{fill:#3AC9DC;}
	.st7{fill:#FF9EA1;}
	.st8{fill:#FFBFED;}
	.st9{fill:#FFFFFF;}
	.st10{font-family:'MyriadPro-Bold';}
	.st11{font-size:100px;}
	.st12{letter-spacing:23;}
	.st13{letter-spacing:32;}
	.st14{letter-spacing:38.6;}
	.st15{letter-spacing:42.7;}
	.st16{letter-spacing:45.1;}
	.st17{letter-spacing:40.2;}
	.st18{display:none;}
</style>
<g>
	<path class="st0" d="M150,183c-54-49-58-54-116,0V17h116V183z"/>
</g>
<g>
	<path class="st1" d="M274.9,183c-54-49-58-54-116,0V17h116V183z"/>
</g>
<g>
	<path class="st2" d="M399.7,183c-54-49-58-54-116,0V17h116V183z"/>
</g>
<g>
	<path class="st3" d="M524.6,183c-54-49-58-54-116,0V17h116V183z"/>
</g>
<g>
	<path class="st4" d="M649.4,183c-54-49-58-54-116,0V17h116V183z"/>
</g>
<g>
	<path class="st5" d="M774.3,183c-54-49-58-54-116,0V17h116V183z"/>
</g>
<g>
	<path class="st6" d="M899.1,183c-54-49-58-54-116,0V17h116V183z"/>
</g>
<g>
	<path class="st7" d="M1024,183c-54-49-58-54-116,0V17h116V183z"/>
</g>
<g>
	<path class="st8" d="M1149,183c-54-49-58-54-116,0V17h116V183z"/>
</g>
<text transform="matrix(1.219 0 0 1 40.3047 108.6919)"><tspan x="0" y="0" class="st9 st10 st11 st12">M</tspan><tspan x="108.2" y="0" class="st9 st10 st11 st13">O</tspan><tspan x="211.9" y="0" class="st9 st10 st11 st14">N</tspan><tspan x="320" y="0" class="st9 st10 st11 st15">K</tspan><tspan x="424.1" y="0" class="st9 st10 st11 st16">E</tspan><tspan x="523.2" y="0" class="st9 st10 st11 st14">Y</tspan><tspan x="622.6" y="0" class="st9 st10 st11 st14">D</tspan><tspan x="731" y="0" class="st9 st10 st11 st16">E</tspan><tspan x="829.8" y="0" class="st9 st10 st11 st17">V</tspan></text>
<g class="st18">
</g>
</svg>
